<?xml version="1.0" encoding="UTF-8" standalone="no"?>
<!DOCTYPE svg PUBLIC "-//W3C//DTD SVG 1.1//EN" "http://www.w3.org/Graphics/SVG/1.1/DTD/svg11.dtd">
<svg width="100%" height="100%" viewBox="0 0 69 87" version="1.1" xmlns="http://www.w3.org/2000/svg" xmlns:xlink="http://www.w3.org/1999/xlink" xml:space="preserve" xmlns:serif="http://www.serif.com/" style="fill-rule:evenodd;clip-rule:evenodd;stroke-linejoin:round;stroke-miterlimit:2;">
    <g id="g36" transform="matrix(3.77912,0,0,3.77912,-0.458104,-0.496593)">
        <g id="g38">
            <g id="g37" transform="matrix(1,0,0,1,-0.235918,-0.188735)">
                <rect id="path31" x="3.308" y="19.182" width="1.126" height="4.065" style="fill-rule:nonzero;"/>
                <path id="path32" d="M5.022,23.247L5.022,19.182L8.123,19.182L8.123,19.968L6.15,19.968L6.15,20.809L7.964,20.809L7.964,21.599L6.15,21.599L6.15,22.46L8.123,22.46L8.123,23.247L5.022,23.247Z" style="fill-rule:nonzero;"/>
                <path id="path33" d="M8.753,23.247L8.753,19.182L11.848,19.182L11.848,19.968L9.879,19.968L9.879,20.809L11.692,20.809L11.692,21.599L9.879,21.599L9.879,22.46L11.848,22.46L11.848,23.247L8.753,23.247Z" style="fill-rule:nonzero;"/>
                <path id="path34" d="M12.481,23.247L12.481,19.182L15.577,19.182L15.577,19.968L13.607,19.968L13.607,20.809L15.42,20.809L15.42,21.599L13.607,21.599L13.607,22.46L15.577,22.46L15.577,23.247L12.481,23.247Z" style="fill-rule:nonzero;"/>
            </g>
            <path id="path35" d="M8.55,2.65C9.15,2.18 9.9,2.57 10.4,3C10.93,3.4 11.48,3.86 11.96,4.33L12.05,4.38C13.389,5.604 14.595,6.964 15.65,8.44C15.81,8.7 15.95,8.99 15.86,9.32C15.52,10.17 14.83,10.85 14.23,11.59C12.958,13.017 11.54,14.307 10,15.44C9.68,15.66 9.26,15.86 8.89,15.69C7.76,15.09 6.79,14.12 5.81,13.23C4.617,12.15 3.551,10.939 2.63,9.62C2.5,9.44 2.46,9.22 2.46,8.97C2.58,8.52 2.88,8.15 3.18,7.77C4.257,6.436 5.448,5.198 6.74,4.07L6.88,3.96C7.42,3.48 7.97,3.06 8.54,2.65M10.29,1.28L9.63,0.32C9.54,0.27 9.44,0.2 9.35,0.16C9.15,0.08 8.93,0.18 8.77,0.31L7.55,1.9C5.586,4.363 3.279,6.531 0.7,8.34C0.5,8.5 0.2,8.65 0.14,8.91C0.07,9.14 0.2,9.34 0.34,9.48C2.422,10.912 4.334,12.576 6.04,14.44C6.35,14.76 6.6,15.08 6.9,15.39C7.41,16.06 8,16.74 8.47,17.46C8.62,17.62 8.64,17.86 8.87,17.94C9.05,18 9.27,18.04 9.44,17.94L9.61,17.77C11.75,14.758 14.368,12.117 17.36,9.95C17.66,9.68 18.23,9.59 18.24,9.09C18.218,8.854 18.089,8.64 17.89,8.51L17.84,8.51C16.296,7.456 14.853,6.261 13.53,4.94L12.05,3.4C11.45,2.73 10.86,1.99 10.3,1.28M8.77,3.02C9.38,2.6 9.93,3.18 10.4,3.52C12.261,4.968 13.904,6.675 15.28,8.59C15.45,8.83 15.52,9.21 15.38,9.49C15.03,10.06 14.58,10.59 14.14,11.11L14.14,11.14C13.06,12.334 11.893,13.447 10.65,14.47C10.05,14.84 9.49,15.65 8.71,15.15C6.885,13.804 5.23,12.243 3.78,10.5C3.54,10.11 3.16,9.8 2.98,9.37C2.75,8.79 3.28,8.37 3.58,7.92C5.04,6.11 6.88,4.32 8.77,3.02M9.16,4.22L8.99,4.74L8.16,7.13C8.36,7.15 8.63,7.13 8.83,7.15L8.83,7.17L8.71,9.87L8.73,9.89C9,9.92 9.33,9.93 9.6,9.89L9.6,9.84L9.49,7.23L9.51,7.14L10.24,7.13C9.87,6.16 9.52,5.19 9.18,4.21L9.16,4.22ZM6.33,7.93C5.86,8.17 5.18,8.53 5.25,9.16C5.35,9.51 5.73,9.74 6.03,9.88C7.68,10.61 9.88,10.63 11.63,10.09C12.05,9.92 12.63,9.69 12.71,9.15C12.71,8.72 12.25,8.45 11.91,8.28L11.91,8.26C12.03,8.21 12.16,8.16 12.28,8.16L12.28,8.14C11.7,8.04 11.13,7.89 10.57,7.74C10.67,7.99 10.75,8.24 10.84,8.51C11.02,8.45 11.19,8.41 11.37,8.39C11.67,8.5 12.1,8.67 12.14,9.04C12.18,9.39 11.79,9.56 11.55,9.7C10.244,10.163 8.828,10.218 7.49,9.86C7.13,9.74 6.59,9.59 6.55,9.12C6.81,8.51 7.49,8.38 8.05,8.22C7.76,8.04 7.47,7.87 7.18,7.66C6.88,7.68 6.6,7.81 6.33,7.93M8.69,10.62C8.64,11.58 8.63,12.46 8.56,13.42C8.94,13.45 9.36,13.49 9.76,13.43L9.65,10.76L9.63,10.63C9.32,10.64 9.03,10.65 8.69,10.62" style="fill-rule:nonzero;"/>
        </g>
        <path id="path36" d="M12.22,16.1C11.89,16.1 11.59,16.33 11.59,16.73C11.59,17.13 11.89,17.36 12.22,17.36C12.23,17.361 12.241,17.361 12.251,17.361C12.58,17.361 12.851,17.09 12.851,16.761C12.851,16.751 12.851,16.74 12.85,16.73C12.851,16.72 12.851,16.709 12.851,16.699C12.851,16.37 12.58,16.099 12.251,16.099C12.241,16.099 12.23,16.099 12.22,16.1M12.22,17.21C11.97,17.21 11.77,17.02 11.77,16.73C11.77,16.44 11.97,16.25 12.22,16.25C12.47,16.25 12.67,16.45 12.67,16.73C12.67,17.02 12.47,17.21 12.22,17.21M12.5,16.6C12.5,16.44 12.4,16.4 12.23,16.4L11.97,16.4L11.97,17.07L12.12,17.07L12.12,16.78L12.19,16.78L12.34,17.07L12.51,17.07L12.34,16.77C12.44,16.77 12.5,16.72 12.5,16.6M12.25,16.67L12.12,16.67L12.12,16.5L12.22,16.5C12.27,16.5 12.35,16.51 12.35,16.58C12.35,16.66 12.31,16.67 12.25,16.67" style="fill-rule:nonzero;"/>
    </g>
</svg>
